<mxfile host="app.diagrams.net" agent="Mozilla/5.0 (Windows NT 10.0; Win64; x64) AppleWebKit/537.36 (KHTML, like Gecko) Chrome/131.0.0.0 Safari/537.36" version="26.0.4">
  <diagram name="Page-1" id="t9WdTdBHKOunBi6au1my">
    <mxGraphModel dx="794" dy="446" grid="1" gridSize="10" guides="1" tooltips="1" connect="1" arrows="1" fold="1" page="1" pageScale="1" pageWidth="827" pageHeight="1169" math="0" shadow="0">
      <root>
        <mxCell id="0" />
        <mxCell id="1" parent="0" />
        <mxCell id="gtHoOCTssSSLqVBKwjCY-2" value="" style="rounded=0;whiteSpace=wrap;html=1;" vertex="1" parent="1">
          <mxGeometry x="140" y="40" width="620" height="680" as="geometry" />
        </mxCell>
        <mxCell id="gtHoOCTssSSLqVBKwjCY-19" style="edgeStyle=orthogonalEdgeStyle;rounded=0;orthogonalLoop=1;jettySize=auto;html=1;exitX=0.75;exitY=1;exitDx=0;exitDy=0;" edge="1" parent="1" source="gtHoOCTssSSLqVBKwjCY-3" target="gtHoOCTssSSLqVBKwjCY-5">
          <mxGeometry relative="1" as="geometry" />
        </mxCell>
        <mxCell id="gtHoOCTssSSLqVBKwjCY-20" style="edgeStyle=orthogonalEdgeStyle;rounded=0;orthogonalLoop=1;jettySize=auto;html=1;exitX=0.25;exitY=1;exitDx=0;exitDy=0;entryX=0.5;entryY=0;entryDx=0;entryDy=0;" edge="1" parent="1" source="gtHoOCTssSSLqVBKwjCY-3" target="gtHoOCTssSSLqVBKwjCY-6">
          <mxGeometry relative="1" as="geometry" />
        </mxCell>
        <mxCell id="gtHoOCTssSSLqVBKwjCY-3" value="Experimentation&lt;div&gt;(Data Collection)&lt;/div&gt;" style="rounded=1;whiteSpace=wrap;html=1;" vertex="1" parent="1">
          <mxGeometry x="340" y="70" width="120" height="60" as="geometry" />
        </mxCell>
        <mxCell id="gtHoOCTssSSLqVBKwjCY-4" value="Vibration momentum" style="rounded=1;whiteSpace=wrap;html=1;" vertex="1" parent="1">
          <mxGeometry x="350" y="180" width="120" height="60" as="geometry" />
        </mxCell>
        <mxCell id="gtHoOCTssSSLqVBKwjCY-30" style="edgeStyle=orthogonalEdgeStyle;rounded=0;orthogonalLoop=1;jettySize=auto;html=1;exitX=0.5;exitY=1;exitDx=0;exitDy=0;entryX=1;entryY=0.5;entryDx=0;entryDy=0;" edge="1" parent="1" source="gtHoOCTssSSLqVBKwjCY-5" target="gtHoOCTssSSLqVBKwjCY-10">
          <mxGeometry relative="1" as="geometry" />
        </mxCell>
        <mxCell id="gtHoOCTssSSLqVBKwjCY-5" value="roughness measurements" style="rounded=1;whiteSpace=wrap;html=1;" vertex="1" parent="1">
          <mxGeometry x="510" y="180" width="120" height="60" as="geometry" />
        </mxCell>
        <mxCell id="gtHoOCTssSSLqVBKwjCY-23" value="" style="edgeStyle=orthogonalEdgeStyle;rounded=0;orthogonalLoop=1;jettySize=auto;html=1;" edge="1" parent="1" source="gtHoOCTssSSLqVBKwjCY-6" target="gtHoOCTssSSLqVBKwjCY-7">
          <mxGeometry relative="1" as="geometry" />
        </mxCell>
        <mxCell id="gtHoOCTssSSLqVBKwjCY-6" value="Tool Images" style="rounded=1;whiteSpace=wrap;html=1;" vertex="1" parent="1">
          <mxGeometry x="190" y="180" width="120" height="60" as="geometry" />
        </mxCell>
        <mxCell id="gtHoOCTssSSLqVBKwjCY-24" value="" style="edgeStyle=orthogonalEdgeStyle;rounded=0;orthogonalLoop=1;jettySize=auto;html=1;" edge="1" parent="1" source="gtHoOCTssSSLqVBKwjCY-7" target="gtHoOCTssSSLqVBKwjCY-8">
          <mxGeometry relative="1" as="geometry" />
        </mxCell>
        <mxCell id="gtHoOCTssSSLqVBKwjCY-7" value="SAM" style="rounded=1;whiteSpace=wrap;html=1;" vertex="1" parent="1">
          <mxGeometry x="190" y="280" width="120" height="60" as="geometry" />
        </mxCell>
        <mxCell id="gtHoOCTssSSLqVBKwjCY-26" value="" style="edgeStyle=orthogonalEdgeStyle;rounded=0;orthogonalLoop=1;jettySize=auto;html=1;" edge="1" parent="1" source="gtHoOCTssSSLqVBKwjCY-8" target="gtHoOCTssSSLqVBKwjCY-25">
          <mxGeometry relative="1" as="geometry" />
        </mxCell>
        <mxCell id="gtHoOCTssSSLqVBKwjCY-8" value="Tool wear images" style="rounded=1;whiteSpace=wrap;html=1;" vertex="1" parent="1">
          <mxGeometry x="190" y="370" width="120" height="60" as="geometry" />
        </mxCell>
        <mxCell id="gtHoOCTssSSLqVBKwjCY-31" value="" style="edgeStyle=orthogonalEdgeStyle;rounded=0;orthogonalLoop=1;jettySize=auto;html=1;" edge="1" parent="1" source="gtHoOCTssSSLqVBKwjCY-10" target="gtHoOCTssSSLqVBKwjCY-12">
          <mxGeometry relative="1" as="geometry" />
        </mxCell>
        <mxCell id="gtHoOCTssSSLqVBKwjCY-10" value="Autoencoders + GRU" style="rounded=0;whiteSpace=wrap;html=1;" vertex="1" parent="1">
          <mxGeometry x="320" y="510" width="160" height="60" as="geometry" />
        </mxCell>
        <mxCell id="gtHoOCTssSSLqVBKwjCY-12" value="Outcome" style="rounded=1;whiteSpace=wrap;html=1;" vertex="1" parent="1">
          <mxGeometry x="340" y="630" width="120" height="60" as="geometry" />
        </mxCell>
        <mxCell id="gtHoOCTssSSLqVBKwjCY-14" value="" style="html=1;shadow=0;dashed=0;align=center;verticalAlign=middle;shape=mxgraph.arrows2.arrow;dy=0.6;dx=40;direction=south;notch=0;" vertex="1" parent="1">
          <mxGeometry x="650" y="60" width="30" height="620" as="geometry" />
        </mxCell>
        <mxCell id="gtHoOCTssSSLqVBKwjCY-15" value="completed" style="text;html=1;align=center;verticalAlign=middle;whiteSpace=wrap;rounded=0;" vertex="1" parent="1">
          <mxGeometry x="680" y="85" width="60" height="30" as="geometry" />
        </mxCell>
        <mxCell id="gtHoOCTssSSLqVBKwjCY-17" value="Completed" style="text;html=1;align=center;verticalAlign=middle;whiteSpace=wrap;rounded=0;" vertex="1" parent="1">
          <mxGeometry x="680" y="190" width="60" height="30" as="geometry" />
        </mxCell>
        <mxCell id="gtHoOCTssSSLqVBKwjCY-22" style="edgeStyle=orthogonalEdgeStyle;rounded=0;orthogonalLoop=1;jettySize=auto;html=1;exitX=0.5;exitY=1;exitDx=0;exitDy=0;entryX=0.417;entryY=0.033;entryDx=0;entryDy=0;entryPerimeter=0;" edge="1" parent="1" source="gtHoOCTssSSLqVBKwjCY-3" target="gtHoOCTssSSLqVBKwjCY-4">
          <mxGeometry relative="1" as="geometry" />
        </mxCell>
        <mxCell id="gtHoOCTssSSLqVBKwjCY-25" value="" style="shape=singleArrow;whiteSpace=wrap;html=1;arrowWidth=0.4;arrowSize=0.4;rounded=1;" vertex="1" parent="1">
          <mxGeometry x="210" y="510" width="80" height="60" as="geometry" />
        </mxCell>
        <mxCell id="gtHoOCTssSSLqVBKwjCY-29" style="edgeStyle=orthogonalEdgeStyle;rounded=0;orthogonalLoop=1;jettySize=auto;html=1;exitX=0.5;exitY=1;exitDx=0;exitDy=0;entryX=0.435;entryY=0.691;entryDx=0;entryDy=0;entryPerimeter=0;" edge="1" parent="1" source="gtHoOCTssSSLqVBKwjCY-4" target="gtHoOCTssSSLqVBKwjCY-2">
          <mxGeometry relative="1" as="geometry" />
        </mxCell>
        <mxCell id="gtHoOCTssSSLqVBKwjCY-32" value="Jan End" style="text;html=1;align=center;verticalAlign=middle;whiteSpace=wrap;rounded=0;" vertex="1" parent="1">
          <mxGeometry x="680" y="310" width="60" height="30" as="geometry" />
        </mxCell>
        <mxCell id="gtHoOCTssSSLqVBKwjCY-33" value="2nd Week of March" style="text;html=1;align=center;verticalAlign=middle;whiteSpace=wrap;rounded=0;" vertex="1" parent="1">
          <mxGeometry x="680" y="570" width="60" height="30" as="geometry" />
        </mxCell>
      </root>
    </mxGraphModel>
  </diagram>
</mxfile>
